# xmcd CD database file
#
# Track frame offsets:
#	150
#	12681
#	29350
#	42842
#	60053
#	81000
#	111064
#	124767
#	147890
#	166303
#	193041
#	213094
#
# Disc length: 3043 seconds
#
# Revision: 0
# Processed by: cddbd v1.5.1PL2 Copyright (c) Steve Scherf et al.
# Submitted via: CDex 1.51
#
DISCID=980be10c
DTITLE=Don Rendell et al - Tenorama
DYEAR=1955
DGENRE=Jazz
TTITLE0=You Stepped Out of a Dream
TTITLE1=Sometimes I'm Happy
TTITLE2=Slow Boat to China
TTITLE3=Yesterday
TTITLE4=Just You ,Just Me
TTITLE5=Don't You Know I Care
TTITLE6=What a Difference a Day Makes
TTITLE7=Teddy Boy
TTITLE8=Curio
TTITLE9=Blue Major
TTITLE10=Poinciana
TTITLE11=Roy Leaps Out
EXTD=YEAR: 1955
EXTT0=
EXTT1=
EXTT2=
EXTT3=
EXTT4=
EXTT5=
EXTT6=
EXTT7=
EXTT8=
EXTT9=
EXTT10=
EXTT11=
PLAYORDER=
